<svg width="73" height="100" viewBox="0 0 73 100" fill="none" xmlns="http://www.w3.org/2000/svg">
<g id="DALL&#194;&#183;E 2024-10-31 12.05.53 - A simple and cute line art illustration of a character with a round face, wearing a sideways cap and a hoodie. The illustration is minimalist, featuri 1">
<g id="Character Illustration">
<path id="Vector" d="M33.8771 2.53896C33.213 2.67567 32.6955 2.99794 32.3146 3.51552C32.0802 3.82802 31.8947 3.98427 31.797 3.95497C31.3966 3.82802 27.8322 4.35536 26.3283 4.75575C25.2443 5.04872 23.8966 5.50771 22.5197 6.05458C20.3615 6.90419 15.2638 9.54091 13.7794 10.5663C11.924 11.8554 10.2443 13.4569 8.64272 15.4784C6.91421 17.6562 5.93764 19.1796 4.79507 21.4647C2.5685 25.9374 1.62124 29.9901 1.61147 35.0585C1.60171 38.1737 2.08999 40.6933 3.18374 43.1933C3.85757 44.7265 4.24819 45.4394 5.14663 46.7772C6.44546 48.7011 7.881 50.1757 9.70717 51.4648C10.049 51.7089 10.5275 52.0605 10.7814 52.2558C11.3185 52.6659 11.963 53.0175 14.0724 54.1015C14.9318 54.5312 15.7033 54.9608 15.8009 55.0487C15.9572 55.1855 15.8986 55.2733 14.9708 56.289C13.5158 57.8905 12.0314 59.912 10.9767 61.7187C9.61928 64.0429 8.46694 66.5819 7.24624 69.9218C6.08413 73.1151 5.381 76.2792 4.7853 81.0546C4.53139 83.1151 4.53139 89.4433 4.79507 91.5038C4.93178 92.5976 5.1271 93.5546 5.27358 93.8378C5.62514 94.5116 6.45522 94.7655 6.86538 94.3066C7.18764 93.9648 7.22671 93.496 7.0021 92.6366C6.89467 92.2167 6.77749 91.6503 6.74819 91.3671C6.72866 91.0937 6.6603 90.4101 6.60171 89.8437C6.50405 88.9159 6.46499 84.3456 6.54311 83.496C6.56264 83.3105 6.60171 82.8222 6.64077 82.4218C6.71889 81.6112 6.89467 79.9413 6.9435 79.6386C6.96303 79.5312 7.03139 79.1308 7.08999 78.7597C7.14858 78.3788 7.26577 77.6562 7.34389 77.1483C7.69546 74.9901 8.61342 71.787 9.756 68.7987C11.0158 65.5077 12.2169 63.0761 13.7599 60.703C15.4884 58.037 16.797 56.5429 17.9005 55.9569C18.4669 55.6542 18.8087 55.1757 18.8087 54.6874C18.8087 54.1698 18.5353 53.8769 17.7638 53.5644C17.3927 53.4179 16.8361 53.1737 16.5138 53.0175C16.1915 52.871 15.7716 52.6952 15.5861 52.6269C15.4005 52.5585 15.1173 52.4218 14.9708 52.3144C14.8146 52.2069 14.4435 51.9921 14.1408 51.8358C12.9884 51.2499 11.5236 50.2831 10.215 49.248C8.37905 47.8026 6.61147 45.6835 5.66421 43.828C4.26772 41.0644 3.68178 38.8183 3.60366 35.9862C3.49624 32.08 3.95522 29.0624 5.24428 25.244C6.3771 21.8847 8.30092 18.4374 10.4201 15.9667C11.5626 14.619 13.5353 12.7733 13.5353 13.037C13.5353 13.1444 13.34 13.4862 12.6466 14.6093C11.9826 15.6737 11.5626 16.6894 11.1037 18.4081C10.879 19.2089 10.8205 19.6972 10.7423 21.0937C10.6837 22.0507 10.6642 22.1483 10.381 22.4999C9.756 23.3007 8.68178 26.4062 8.34975 28.369C8.16421 29.5214 8.00796 32.539 8.08608 33.6132C8.17397 34.8925 8.65249 37.2948 9.04311 38.4276C9.49233 39.7362 10.5177 41.7382 11.2208 42.6757C12.4611 44.3358 13.9943 45.7714 15.7619 46.914C18.0373 48.3886 19.5314 49.1601 21.7873 50.039C22.7345 50.4101 24.5802 50.996 25.2052 51.1132C25.3126 51.1327 25.7521 51.2401 26.1818 51.3573C26.9533 51.5526 29.4337 51.9823 30.381 52.0898C33.047 52.3827 40.4298 52.2753 42.4904 51.9042C42.6564 51.8749 43.2228 51.7675 43.7599 51.6601C44.297 51.5624 45.2345 51.3866 45.8302 51.2694C48.0372 50.8593 51.1232 49.6581 53.4181 48.2909C54.7072 47.5292 57.2267 45.83 57.8712 45.2929C58.6622 44.6288 59.9318 43.2323 60.1662 42.7733C60.254 42.5878 60.4103 42.3437 60.5079 42.2362C60.7033 42.0214 61.8458 39.7851 62.3439 38.662C63.2716 36.5526 63.6329 34.6874 63.6427 32.0312C63.6427 29.9315 63.5158 28.3495 63.2521 27.3241C62.8224 25.6542 61.5333 22.5976 60.8009 21.5233C60.2638 20.7323 60.2345 20.6444 59.7267 18.3202C59.3361 16.5526 59.0626 15.7323 58.3595 14.3065C57.9689 13.5058 57.4806 12.7343 56.8263 11.8749C56.299 11.1913 55.8009 10.5272 55.7228 10.4198C55.5079 10.1171 56.5724 10.8202 57.6271 11.6698C61.338 14.6776 64.5119 18.7694 66.4943 23.1347C67.09 24.4335 68.0177 27.1776 68.174 28.0761C68.1935 28.1835 68.2619 28.4276 68.3204 28.6132C68.4181 28.9354 68.7208 30.7421 68.8478 31.7382C68.9259 32.2753 68.9259 34.7069 68.8673 35.1073C68.838 35.2636 68.7892 35.6444 68.7599 35.9374C68.7306 36.2304 68.6818 36.5429 68.6622 36.621C68.6427 36.6991 68.5939 36.9628 68.5646 37.2069C68.4767 37.8417 68.2423 39.0624 68.1447 39.4042C68.0079 39.8339 67.3146 41.5429 66.924 42.3827C66.3185 43.6913 64.6583 46.0351 63.4767 47.2167C62.1095 48.5937 61.5333 49.0722 59.3849 50.664C58.5646 51.2792 56.5529 52.2655 55.2638 52.6855C53.7013 53.2128 53.4865 53.3105 52.9298 53.828C52.5587 54.1698 52.5001 54.2773 52.5001 54.6093C52.5001 54.9218 52.5587 55.0585 52.8029 55.2831C52.9689 55.4394 53.1447 55.5663 53.1935 55.5663C53.506 55.5663 54.1701 56.0253 54.5509 56.5038C54.7951 56.8065 55.4494 57.5683 56.006 58.1933C58.506 61.0058 61.2208 66.0155 62.7247 70.6054C64.4044 75.7519 65.1759 79.7753 65.4982 85.1073C65.6837 88.1151 65.4787 92.0116 65.0978 93.0273C64.9611 93.3691 65.1759 93.9941 65.5275 94.3261C65.7912 94.5702 66.465 94.6288 66.7189 94.4335C67.0509 94.1503 67.1876 93.5058 67.3048 91.6991C67.3341 91.1327 67.3927 90.2734 67.4318 89.7948C67.5392 88.164 67.4806 84.7851 67.2853 82.7636C67.1193 80.8691 66.5138 77.1776 66.0841 75.3222C65.6447 73.4276 65.2247 71.9921 64.4533 69.7167C63.1935 65.996 60.9474 61.5429 59.1505 59.1796C58.799 58.7206 58.2521 57.998 57.9298 57.5683C57.5978 57.1386 56.9435 56.3964 56.4747 55.9276C55.8595 55.3026 55.6251 54.9999 55.6447 54.8534C55.6642 54.746 55.7423 54.6483 55.8204 54.6288C56.3283 54.5409 58.9943 53.3007 59.6779 52.8417C62.1583 51.162 63.0568 50.4101 65.2443 48.1249C66.0744 47.2753 66.9337 46.2108 67.1486 45.8007C67.2169 45.664 67.3634 45.4491 67.4904 45.3124C67.8224 44.9315 68.6818 43.3397 68.8087 42.8612C68.8771 42.6269 69.0236 42.2362 69.1505 41.9921C69.5607 41.1815 70.7814 36.3183 70.6154 36.1522C70.5861 36.123 70.6154 36.0351 70.6837 35.9667C70.9572 35.6347 70.84 31.0546 70.5372 30.0097C70.5079 29.912 70.4494 29.5897 70.4201 29.2968C70.2443 27.8222 69.0626 24.0136 68.2228 22.2069C65.9181 17.2558 61.6212 12.0116 57.7247 9.41396C55.5763 7.97841 54.0333 7.30458 48.7404 5.50771C45.1954 4.30653 41.0841 3.55458 38.6427 3.67177L37.9201 3.71083L37.5392 3.27138C37.256 2.94911 37.0216 2.79286 36.6505 2.68544C36.0451 2.49989 34.4533 2.412 33.8771 2.53896ZM38.0958 5.32216C43.0958 5.85927 45.1662 6.27919 47.715 7.22646C49.6095 7.92958 50.8595 8.58388 51.8165 9.35536C52.8419 10.1854 54.3263 11.7186 55.0587 12.6952C55.8693 13.7792 57.3244 16.4062 57.1193 16.4062C57.0802 16.4062 56.4552 16.1034 55.7326 15.7421C54.1701 14.9511 53.5646 14.7069 51.4747 13.994C48.5939 13.0175 44.6388 12.1386 42.1193 11.914C41.465 11.8554 40.7521 11.787 40.5373 11.7675C40.3224 11.7479 39.1798 11.6991 37.9982 11.66L35.84 11.5917L35.8595 9.48232C35.8693 7.36317 35.7814 5.58583 35.6447 5.23427C35.5665 5.02919 35.3517 5.01942 38.0958 5.32216ZM33.7501 7.69521C33.7501 8.98427 33.7794 10.4296 33.8087 10.9179L33.8771 11.8163H33.2521C32.9103 11.8163 32.3634 11.8554 32.0412 11.9042C31.4162 12.0018 31.1915 12.0311 29.1798 12.2558C27.6857 12.4218 26.6994 12.6366 24.9611 13.1347C24.2873 13.33 23.2814 13.6132 22.715 13.7694C19.7169 14.5897 16.8263 15.8495 13.838 17.6464C13.5451 17.8222 13.2716 17.9687 13.2228 17.9687C13.0665 17.9687 13.1935 17.5878 13.7599 16.4062C15.7619 12.2362 18.2619 9.90224 22.8615 7.91005C25.4787 6.77724 28.008 6.12294 31.6994 5.61513C32.588 5.49794 33.4083 5.39052 33.5353 5.38075L33.7501 5.37099V7.69521ZM39.7755 13.7108C39.8927 13.7401 40.4396 13.7792 40.9962 13.8085C42.6662 13.9061 43.0763 13.9647 45.5861 14.4628C48.7111 15.078 51.0744 15.8202 54.2091 17.1679C56.631 18.1933 57.9689 19.0624 57.9689 19.5897C57.9689 19.9218 57.6271 20.5761 57.3537 20.7421C56.9923 20.9667 56.2892 21.0155 55.5275 20.8593C54.756 20.6933 54.0138 20.4003 51.5236 19.2675C48.6818 17.9589 46.9728 17.3437 44.6388 16.7577C43.5255 16.4843 41.6701 16.1425 40.879 16.0741C40.5861 16.0546 40.0978 15.9862 39.8048 15.9276C38.3986 15.6737 35.9962 15.5565 35.9962 15.7519C35.9962 15.83 35.9669 15.83 35.9083 15.7421C35.8302 15.6151 35.5958 15.6151 35.4982 15.7519C35.4689 15.7909 35.3224 15.7812 35.1759 15.7226C35.0294 15.6737 34.8634 15.6444 34.8244 15.6737C34.7755 15.703 34.4337 15.7323 34.0724 15.7323C33.34 15.7421 31.299 16.0741 29.7951 16.4354C27.2951 17.0409 24.0919 17.9491 23.2033 18.3202C21.5919 18.9745 19.463 19.9901 18.5744 20.537C16.8751 21.5624 15.7326 22.08 14.9806 22.1386C14.4044 22.1874 14.2677 22.1679 13.7892 21.9335C13.2228 21.6503 12.8517 21.2792 12.8517 20.9862C12.8517 20.1269 17.8615 17.3046 21.6017 16.0546C23.379 15.4589 26.0646 14.785 28.5255 14.3163C29.424 14.1405 31.7189 13.8378 32.9201 13.7304C34.2677 13.6132 39.1994 13.5936 39.7755 13.7108ZM38.4865 18.1151C39.0236 18.1444 39.6583 18.1933 39.9025 18.2226C40.1466 18.2519 40.4982 18.2909 40.6837 18.3104C41.299 18.3788 41.6896 18.4472 42.9787 18.7011C43.6818 18.8378 44.3751 18.9745 44.5216 18.994C44.6681 19.0233 44.8634 19.0819 44.9611 19.1308C45.049 19.1698 45.3712 19.2675 45.6642 19.3358C46.2794 19.4823 50.0294 20.9569 51.4552 21.621C53.0568 22.3632 54.9025 22.9101 56.1818 23.0077C57.3048 23.0858 57.9298 22.9003 58.6134 22.246L59.1408 21.7577L59.2384 22.0116C59.2872 22.1581 59.3361 22.3241 59.3361 22.3729C59.3361 22.5097 60.1954 24.6093 60.3517 24.8534C60.5958 25.2343 60.9865 26.328 61.2208 27.2948C61.6017 28.8183 61.6798 29.6093 61.6798 31.5917C61.6798 33.1347 61.504 34.9804 61.2501 36.0351C60.5568 38.994 58.6915 42.246 56.8556 43.7011C56.5138 43.9647 56.006 44.3749 55.7326 44.5995C55.4494 44.8339 54.8341 45.2245 54.3751 45.4784C53.9064 45.7226 53.174 46.1327 52.7443 46.3866C50.5372 47.6659 48.2033 48.6522 46.1525 49.1698C45.2638 49.3944 43.5646 49.6679 42.4415 49.7558C42.1486 49.7851 41.5138 49.8534 41.0255 49.9023C40.547 49.9511 39.6681 50.0487 39.0724 50.1073C38.4865 50.1659 37.754 50.2343 37.4611 50.2636C36.7091 50.3515 34.5607 50.3515 33.4669 50.2636C31.8849 50.1464 28.0373 49.6679 26.963 49.4726C24.6095 49.0233 22.5392 48.3593 20.713 47.4608C18.6818 46.455 16.299 44.9901 15.3517 44.1698C12.7443 41.8749 11.133 39.2675 10.4689 36.2304C10.3126 35.4882 10.2736 35.3124 10.1759 34.4237C10.1466 34.1503 10.088 33.7401 10.0587 33.496C9.95131 32.7245 10.0099 30.4491 10.1662 29.3651C10.3322 28.1444 10.6056 26.8944 10.9083 25.9374C11.0939 25.3026 11.924 23.6327 12.0412 23.6327C12.0705 23.6327 12.4123 23.789 12.8029 23.9843C13.4767 24.3163 13.5744 24.3358 14.4142 24.3261C14.9025 24.3261 15.3322 24.2968 15.381 24.2772C15.4201 24.2479 15.5568 24.2089 15.6935 24.1796C16.2306 24.0819 17.6271 23.5058 18.6915 22.9394C21.7091 21.3476 22.2462 21.0839 23.1544 20.7226C25.1759 19.9218 27.4513 19.2284 28.7697 19.0038C28.9064 18.9843 29.1212 18.9354 29.258 18.9062C29.3947 18.8769 29.6388 18.828 29.7951 18.7987C31.8263 18.4374 32.3439 18.369 32.5001 18.4179C32.6076 18.4472 32.7443 18.4276 32.8126 18.369C32.8908 18.3007 33.0763 18.2616 33.2228 18.2714C33.379 18.2812 33.9455 18.2421 34.4826 18.1835C35.0197 18.1249 35.713 18.0858 36.0255 18.0858C36.3283 18.0956 36.6115 18.0663 36.6505 18.037C36.6798 17.9979 36.8947 17.9979 37.1095 18.0175C37.3341 18.0468 37.9494 18.0956 38.4865 18.1151Z" fill="#F9F8F8"/>
<path id="Vector_2" d="M20.9766 28.1641C19.5996 28.6133 18.9258 29.7851 19.0234 31.5527C19.082 32.5293 19.4043 33.2129 20.127 33.8672C20.5176 34.2285 20.791 34.3848 21.1621 34.4726C22.6074 34.8242 24.1406 34.043 24.7949 32.6172C25.0586 32.041 25.0781 31.9141 25.0391 31.1523C24.9902 30.1855 24.7852 29.6973 24.1504 29.0723C23.3008 28.2324 21.9531 27.8418 20.9766 28.1641Z" fill="#F9F8F8"/>
<path id="Vector_3" d="M48.9648 28.1737C48.3105 28.3886 47.5195 29.1405 47.168 29.9022C46.9238 30.4394 46.8848 30.6347 46.8848 31.3964C46.8848 32.1874 46.9141 32.3241 47.1777 32.8026C47.5781 33.5351 48.4082 34.248 49.0723 34.4433C50.5078 34.8534 52.1777 34.0233 52.7051 32.6171C52.8516 32.2362 52.9199 31.8456 52.9199 31.2401C52.9297 30.5175 52.8906 30.3319 52.666 29.8632C52.002 28.5155 50.3223 27.744 48.9648 28.1737Z" fill="#F9F8F8"/>
<path id="Vector_4" d="M32.7053 33.7889C32.4514 33.8866 32.3244 34.1014 32.2365 34.5702C32.0217 35.7225 34.4338 36.8456 36.592 36.6112C37.4611 36.5135 38.0275 36.3378 38.8772 35.9178C39.7561 35.4784 40.0002 35.2147 40.0002 34.6874C40.0002 34.3358 39.9514 34.2088 39.6975 33.9745C39.5314 33.8182 39.3068 33.6913 39.1994 33.6913C39.092 33.6913 38.6428 33.8671 38.2131 34.0819C36.9533 34.6874 36.3381 34.8241 35.508 34.6776C35.1369 34.6092 34.4826 34.3846 34.0627 34.1796C33.1154 33.7206 32.9689 33.6815 32.7053 33.7889Z" fill="#F9F8F8"/>
<path id="Vector_5" d="M52.6076 35.6151C52.1291 35.869 51.9143 36.2108 51.8557 36.8261C51.7678 37.8319 52.2561 38.2323 53.467 38.1347C54.5608 38.0468 55.0393 37.6952 55.0393 36.9921C55.0393 36.5819 54.8733 36.3378 54.258 35.8886C53.6623 35.4589 53.1057 35.3612 52.6076 35.6151Z" fill="#F9F8F8"/>
<path id="Vector_6" d="M18.0281 35.8007C17.2469 36.1327 16.866 36.7968 17.0418 37.4804C17.2469 38.2226 17.823 38.5253 18.8582 38.4276C20.0789 38.3105 20.4695 37.9784 20.4695 37.0702C20.4695 36.494 20.1472 36.1132 19.4344 35.8495C18.7996 35.6054 18.4969 35.5956 18.0281 35.8007Z" fill="#F9F8F8"/>
<path id="Vector_7" d="M29.5805 55.8887C29.3266 56.4453 29.2192 57.2852 29.3266 57.8809C29.4535 58.5352 29.4145 62.1875 29.268 64.1113C29.0336 67.0605 28.9653 67.7637 28.8676 68.0273C28.5649 68.8086 29.2875 69.6289 30.2641 69.6289C30.7524 69.6289 31.1235 69.3945 31.3578 68.9453C31.5531 68.5645 31.5434 68.4473 31.2602 68.0273C30.9574 67.5879 30.9574 67.5 31.2114 64.5996C31.3285 63.3594 31.4457 61.1035 31.475 59.5703L31.5336 56.7773L31.2211 56.4258C30.9086 56.0645 30.4496 55.8008 29.9711 55.7031C29.7367 55.6543 29.6684 55.6934 29.5805 55.8887Z" fill="#F9F8F8"/>
<path id="Vector_8" d="M40.879 56.0253C40.3126 56.2401 39.9415 57.0116 40.0392 57.8026C40.0685 58.0468 40.127 58.6034 40.1563 59.0331C40.1856 59.4628 40.254 60.2538 40.2931 60.7909C40.4981 63.3202 40.1954 67.8026 39.7657 68.662C39.5704 69.0624 39.5606 69.619 39.756 69.9022C39.9903 70.2245 40.7423 70.6249 41.1134 70.6249C41.8458 70.6249 42.2462 70.0389 42.0899 69.2284C42.0313 68.9647 42.0216 68.4862 42.0606 68.1444C42.129 67.5975 42.1681 67.0897 42.295 65.5272C42.4513 63.5253 42.3048 57.0507 42.0899 56.6307C41.8751 56.2108 41.2403 55.8886 40.879 56.0253Z" fill="#F9F8F8"/>
<path id="Vector_9" d="M53.8088 64.2578C53.6916 64.3066 53.5256 64.4434 53.4377 64.5703C53.1643 64.9609 53.1838 65.0293 54.1018 67.002C54.6389 68.1738 55.8108 72.3437 56.1526 74.3164C56.2404 74.8242 56.4162 75.8594 56.5529 76.6113C56.7971 77.9883 57.0217 79.6484 57.1389 80.9082C57.1779 81.2793 57.2268 81.7187 57.2561 81.8848C57.2854 82.041 57.3244 84.2187 57.344 86.7187C57.383 90.625 57.3635 91.3867 57.2268 92.1387C57.1389 92.6172 57.0412 93.3789 57.0217 93.8184C56.9729 94.6094 56.9729 94.6289 57.2658 94.9219C57.4904 95.1367 57.6565 95.2148 57.9201 95.2148C58.7795 95.2148 59.0725 94.6289 59.1897 92.627C59.219 92.0898 59.2678 91.3574 59.2971 91.0059C59.3557 90.1953 59.3557 84.5898 59.2873 83.2031C59.2385 82.1973 59.1604 80.9473 59.1018 80.4687C59.0822 80.332 59.0432 79.9121 59.0041 79.541C58.9455 79.0039 58.6623 77.168 58.4084 75.7812C58.3987 75.7031 58.3303 75.3027 58.2619 74.9023C58.0959 73.8574 57.3537 70.7031 56.885 69.043C56.0354 66.0449 55.342 64.6094 54.5901 64.2969C54.219 64.1406 54.1018 64.1406 53.8088 64.2578Z" fill="#F9F8F8"/>
<path id="Vector_10" d="M15.801 64.707C15.4983 64.912 15.3909 65.1562 15.137 66.162C15.01 66.6406 14.805 67.4609 14.6682 67.9687C14.5413 68.4765 14.3557 69.1796 14.2776 69.5312C14.1995 69.8827 14.0628 70.4296 13.9846 70.7519C13.7112 71.8261 13.1643 74.4531 13.096 74.9999C13.0569 75.2929 12.8811 76.4355 12.6956 77.539C12.1878 80.5859 11.9827 83.5937 12.0217 87.4023C12.0413 88.7695 12.0706 89.9804 12.0999 90.0878C12.1292 90.1952 12.178 90.703 12.2171 91.2109C12.3245 92.7245 12.5393 94.2089 12.7053 94.5995C12.9007 95.0683 13.2913 95.4687 13.6038 95.5566C13.926 95.6347 14.4925 95.4394 14.6096 95.2148C14.7464 94.9511 14.7268 94.3847 14.551 93.6523C14.385 92.9296 14.1702 91.3573 14.1116 90.4296C14.0432 89.2675 14.0725 83.164 14.1507 82.08C14.2678 80.4101 14.5022 78.2421 14.6487 77.4902C14.7171 77.1093 14.8538 76.3671 14.9514 75.83C15.5276 72.4902 16.5432 68.0566 17.0413 66.6894C17.3831 65.7519 17.4514 65.3906 17.3342 65.0585C17.1682 64.5898 16.2698 64.3749 15.801 64.707Z" fill="#F9F8F8"/>
</g>
</g>
</svg>
